<svg xmlns="http://www.w3.org/2000/svg" viewBox="0 0 122.1 40"><path d="M5 39.5c-2.5 0-4.5-2-4.5-4.5V5C.5 2.5 2.5.5 5 .5h112.1c2.5 0 4.5 2 4.5 4.5v30c0 2.5-2 4.5-4.5 4.5H5z" fill="#fff"/><path d="M117.1 1c2.2 0 4 1.8 4 4v30c0 2.2-1.8 4-4 4H5c-2.2 0-4-1.8-4-4V5c0-2.2 1.8-4 4-4h112.1m0-1H5C2.2 0 0 2.2 0 5v30c0 2.8 2.2 5 5 5h112.1c2.8 0 5-2.2 5-5V5c0-2.8-2.3-5-5-5z"/><path d="M32.4 14V8.4h2.3c1.1 0 1.7.5 1.7 1.4 0 .6-.4 1.1-1 1.2v.1c.8.1 1.3.6 1.3 1.4 0 1-.7 1.6-1.9 1.6h-2.4zm.9-3.2h1c.8 0 1.2-.3 1.2-.8s-.4-.8-1-.8h-1.2v1.6zm1.2 2.5c.8 0 1.2-.3 1.2-.9 0-.6-.4-.9-1.3-.9h-1.2v1.8h1.3zM37.3 8.5c0-.3.2-.6.5-.6s.5.2.5.6c0 .3-.2.5-.5.5s-.5-.2-.5-.5zm.1 1.3h.8V14h-.8V9.8zM42.8 12.9c-.2.8-.9 1.2-1.8 1.2-1.2 0-2-.8-2-2.2s.8-2.2 2-2.2 1.9.8 1.9 2.1v.3h-3c0 .7.5 1.2 1.1 1.2.5 0 .9-.2 1-.5h.8zm-2.9-1.4H42c0-.7-.4-1.1-1-1.1s-1.1.5-1.1 1.1zM43.7 9.8h.8v.7h.1c.2-.5.6-.8 1.3-.8.9 0 1.5.6 1.5 1.6V14h-.8v-2.5c0-.7-.3-1-.9-1s-1 .4-1 1.1V14h-.8V9.8zM49.4 8.7v1.1h.9v.7h-.9v2.2c0 .4.2.6.6.6h.3v.7h-.5c-.9 0-1.3-.3-1.3-1.1v-2.4h-.7v-.7h.7V8.7h.9zM50.8 11.9c0-1.4.8-2.2 2-2.2s2 .8 2 2.2c0 1.4-.8 2.2-2 2.2-1.3 0-2-.8-2-2.2zm3.4-2.7h-.8l-.6-.9h-.1l-.6.9h-.8l1-1.4h.9l1 1.4zm-.3 2.7c0-.9-.4-1.5-1.1-1.5-.7 0-1.1.5-1.1 1.5 0 .9.4 1.5 1.1 1.5.7 0 1.1-.6 1.1-1.5zM56.7 8.7v1.1h.9v.7h-.9v2.2c0 .4.2.6.6.6h.3v.7h-.5c-.9 0-1.3-.3-1.3-1.1v-2.4h-.7v-.7h.7V8.7h.9zM60.1 11.9c0-1.3.7-2.2 1.8-2.2.6 0 1.1.3 1.3.7h.1V8.1h.8V14h-.8v-.7h-.1c-.3.5-.8.7-1.3.7-1.1.1-1.8-.7-1.8-2.1zm.9 0c0 .9.4 1.4 1.1 1.4.7 0 1.1-.6 1.1-1.4 0-.9-.4-1.4-1.1-1.4-.7 0-1.1.5-1.1 1.4zM65 8.5c0-.3.2-.6.5-.6s.5.3.5.6-.2.5-.5.5-.5-.2-.5-.5zm.1 1.3h.8V14h-.8V9.8zM68.5 9.7c1 0 1.6.4 1.7 1.2h-.8c-.1-.3-.4-.5-.9-.5s-.8.2-.8.6c0 .3.2.4.7.5l.7.2c.8.2 1.2.5 1.2 1.2 0 .8-.7 1.3-1.8 1.3-1 0-1.7-.5-1.7-1.2h.8c.1.3.4.5.9.5s.9-.2.9-.6c0-.3-.2-.4-.6-.5l-.8-.2c-.8-.2-1.2-.6-1.2-1.2 0-.8.7-1.3 1.7-1.3zM75 11.9c0 1.4-.7 2.2-1.8 2.2-.6 0-1.1-.3-1.3-.7h-.1v2.1H71V9.8h.8v.7h.1c.3-.5.8-.8 1.3-.8 1.1 0 1.8.9 1.8 2.2zm-.9 0c0-.9-.4-1.4-1.1-1.4-.7 0-1.1.6-1.1 1.4 0 .9.4 1.4 1.1 1.4.7.1 1.1-.5 1.1-1.4zM75.5 11.9c0-1.4.8-2.2 2-2.2s2 .8 2 2.2c0 1.4-.8 2.2-2 2.2s-2-.8-2-2.2zm3.2 0c0-.9-.4-1.5-1.1-1.5-.7 0-1.1.5-1.1 1.5 0 .9.4 1.5 1.1 1.5.7 0 1.1-.6 1.1-1.5zM80.3 9.8h.8v.7h.1c.2-.5.6-.8 1.3-.8.9 0 1.5.6 1.5 1.6V14h-.8v-2.5c0-.7-.3-1-.9-1s-1 .4-1 1.1V14h-.8V9.8zM84.8 8.5c0-.3.2-.6.5-.6s.5.2.5.6c0 .3-.2.5-.5.5s-.5-.2-.5-.5zm.1 1.3h.8V14h-.8V9.8zM87.6 13.4v.6h-.8V8.1h.8v2.3h.1c.2-.5.7-.7 1.3-.7 1.1 0 1.8.8 1.8 2.2 0 1.3-.7 2.2-1.8 2.2-.6 0-1.1-.3-1.4-.7zm0-1.5c0 .9.4 1.4 1.1 1.4.7 0 1.1-.5 1.1-1.4 0-.9-.4-1.4-1.1-1.4-.7 0-1.1.5-1.1 1.4zM91.5 8.1h.8V14h-.8V8.1zM97 12.9c-.2.8-.9 1.2-1.8 1.2-1.2 0-2-.8-2-2.2s.8-2.2 2-2.2 1.9.8 1.9 2.1v.3h-3c0 .7.5 1.2 1.1 1.2.5 0 .9-.2 1-.5h.8zm-3-1.4h2.1c0-.7-.4-1.1-1-1.1s-1 .5-1.1 1.1zM101.3 9.7c1 0 1.6.4 1.7 1.2h-.8c-.1-.3-.4-.5-.9-.5s-.8.2-.8.6c0 .3.2.4.7.5l.7.2c.8.2 1.2.5 1.2 1.2 0 .8-.7 1.3-1.8 1.3-1 0-1.7-.5-1.7-1.2h.8c.1.3.4.5.9.5s.9-.2.9-.6c0-.3-.2-.4-.6-.5l-.7-.2c-.8-.2-1.2-.6-1.2-1.2-.1-.8.6-1.3 1.6-1.3zM107.4 14h-.8v-.7h-.1c-.2.5-.6.8-1.3.8-.9 0-1.5-.6-1.5-1.6V9.8h.8v2.5c0 .7.3 1 .9 1 .7 0 1.1-.4 1.1-1.1V9.8h.8V14zM108.4 9.8h.8v.7h.1c.1-.4.6-.7 1.1-.7h.4v.8c-.1 0-.3-.1-.5-.1-.6 0-1.1.4-1.1 1V14h-.8V9.8z"/><g><path d="M22.9 19.1c0-1.8.9-3.4 2.5-4.3-1-1.4-2.5-2.2-4.2-2.2-1.7-.2-3.4 1-4.3 1-.9 0-2.3-1-3.8-1-1.9.1-3.7 1.1-4.7 2.8-2 3.5-.5 8.6 1.4 11.4 1 1.4 2.1 2.9 3.6 2.9 1.4-.1 2-.9 3.7-.9 1.7 0 2.2.9 3.7.9s2.5-1.4 3.5-2.8c.7-1 1.2-2.1 1.6-3.2-1.8-.8-3-2.6-3-4.6zM20.1 10.7c.8-1 1.3-2.3 1.2-3.6-1.3.1-2.5.8-3.3 1.7-.8 1-1.3 2.2-1.2 3.5 1.2 0 2.5-.6 3.3-1.6z"/></g><g><path d="M33.1 17.3H35v12.4h-1.9V17.3zM37.2 21.9l1-4.5H40l-1.2 4.5h-1.6zM47.1 26.4h-4.7l-1.1 3.4h-2l4.5-12.4h2.1l4.5 12.4h-2l-1.3-3.4zm-4.3-1.6h3.8l-1.8-5.4h-.1l-1.9 5.4zM59.9 25.2c0 2.8-1.5 4.6-3.8 4.6-1.2.1-2.3-.6-2.8-1.6v4.5h-1.9v-12h1.8v1.5c.6-1 1.7-1.6 2.9-1.6 2.3 0 3.8 1.8 3.8 4.6zm-1.9 0c0-1.8-.9-3-2.4-3-1.4 0-2.4 1.2-2.4 3s1 3 2.4 3c1.5.1 2.4-1.1 2.4-3zM69.9 25.2c0 2.8-1.5 4.6-3.8 4.6-1.2.1-2.3-.6-2.8-1.6v4.5h-1.9v-12h1.8v1.5c.6-1 1.7-1.6 2.9-1.6 2.3 0 3.8 1.8 3.8 4.6zm-1.9 0c0-1.8-.9-3-2.4-3-1.4 0-2.4 1.2-2.4 3s1 3 2.4 3c1.4.1 2.4-1.1 2.4-3zM76.5 26.3c.1 1.2 1.3 2 3 2 1.6 0 2.7-.8 2.7-1.9 0-1-.7-1.5-2.3-1.9l-1.6-.4c-2.3-.6-3.3-1.6-3.3-3.3 0-2.1 1.9-3.6 4.5-3.6s4.4 1.5 4.5 3.6h-2c-.1-1.2-1.1-2-2.6-2s-2.5.8-2.5 1.9c0 .9.7 1.4 2.3 1.8l1.4.3c2.5.6 3.6 1.6 3.6 3.4 0 2.3-1.9 3.8-4.8 3.8-2.8 0-4.6-1.4-4.7-3.7h1.8zM88.1 18.5v2.1h1.7v1.5h-1.7v5c0 .8.3 1.1 1.1 1.1h.6v1.5c-.3.1-.7.1-1 .1-1.8 0-2.5-.7-2.5-2.4v-5.2H85v-1.5h1.3v-2.1h1.8zM90.8 25.2c0-2.8 1.7-4.6 4.3-4.6 2.6 0 4.3 1.8 4.3 4.6 0 2.9-1.7 4.6-4.3 4.6-2.6 0-4.3-1.7-4.3-4.6zm6.7 0c0-2-.9-3.1-2.4-3.1s-2.4 1.2-2.4 3.1c0 2 .9 3.1 2.4 3.1s2.4-1.1 2.4-3.1zM100.9 20.7h1.8v1.5c.2-1 1.2-1.7 2.2-1.6.2 0 .4 0 .6.1v1.7c-.3-.1-.6-.1-.8-.1-1 0-1.9.8-1.9 1.8v5.7h-1.9v-9.1zM114.1 27.1c-.2 1.6-1.9 2.8-3.9 2.8-2.6 0-4.3-1.8-4.3-4.6s1.6-4.7 4.2-4.7c2.5 0 4.1 1.7 4.1 4.5v.6h-6.4v.1c-.1 1.3.8 2.4 2.1 2.6h.3c.9.1 1.8-.4 2.1-1.3h1.8zm-6.2-2.7h4.5c.1-1.2-.9-2.2-2.1-2.3h-.2c-1.2 0-2.2 1-2.2 2.3z"/></g></svg>