<svg version="1.1" id="Calque_1" xmlns="http://www.w3.org/2000/svg" x="0" y="0" viewBox="0 0 135 40" xml:space="preserve"><style>.st6{opacity:.12;enable-background:new}</style><path d="M5 39.5c-2.5 0-4.5-2-4.5-4.5V5C.5 2.5 2.5.5 5 .5h125c2.5 0 4.5 2 4.5 4.5v30c0 2.5-2 4.5-4.5 4.5H5z" fill="#fff"/><path d="M130 1c2.2 0 4 1.8 4 4v30c0 2.2-1.8 4-4 4H5c-2.2 0-4-1.8-4-4V5c0-2.2 1.8-4 4-4h125m0-1H5C2.2 0 0 2.2 0 5v30c0 2.8 2.2 5 5 5h125c2.8 0 5-2.2 5-5V5c0-2.8-2.2-5-5-5z"/><path d="M68.1 21.8c-2.4 0-4.3 1.8-4.3 4.3 0 2.4 1.9 4.3 4.3 4.3s4.3-1.8 4.3-4.3c0-2.6-1.9-4.3-4.3-4.3zm0 6.8c-1.3 0-2.4-1.1-2.4-2.6s1.1-2.6 2.4-2.6 2.4 1 2.4 2.6c0 1.5-1.1 2.6-2.4 2.6zm-9.3-6.8c-2.4 0-4.3 1.8-4.3 4.3 0 2.4 1.9 4.3 4.3 4.3s4.3-1.8 4.3-4.3c0-2.6-1.9-4.3-4.3-4.3zm0 6.8c-1.3 0-2.4-1.1-2.4-2.6s1.1-2.6 2.4-2.6c1.3 0 2.4 1 2.4 2.6 0 1.5-1.1 2.6-2.4 2.6zm-11.1-5.5v1.8H52c-.1 1-.5 1.8-1 2.3-.6.6-1.6 1.3-3.3 1.3-2.7 0-4.7-2.1-4.7-4.8s2.1-4.8 4.7-4.8c1.4 0 2.5.6 3.3 1.3l1.3-1.3c-1.1-1-2.5-1.8-4.5-1.8-3.6 0-6.7 3-6.7 6.6 0 3.6 3.1 6.6 6.7 6.6 2 0 3.4-.6 4.6-1.9 1.2-1.2 1.6-2.9 1.6-4.2 0-.4 0-.8-.1-1.1h-6.2zm45.4 1.4c-.4-1-1.4-2.7-3.6-2.7s-4 1.7-4 4.3c0 2.4 1.8 4.3 4.2 4.3 1.9 0 3.1-1.2 3.5-1.9l-1.4-1c-.5.7-1.1 1.2-2.1 1.2s-1.6-.4-2.1-1.3l5.7-2.4-.2-.5zm-5.8 1.4c0-1.6 1.3-2.5 2.2-2.5.7 0 1.4.4 1.6.9l-3.8 1.6zM82.6 30h1.9V17.5h-1.9V30zm-3-7.3c-.5-.5-1.3-1-2.3-1-2.1 0-4.1 1.9-4.1 4.3s1.9 4.2 4.1 4.2c1 0 1.8-.5 2.2-1h.1v.6c0 1.6-.9 2.5-2.3 2.5-1.1 0-1.9-.8-2.1-1.5l-1.6.7c.5 1.1 1.7 2.5 3.8 2.5 2.2 0 4-1.3 4-4.4V22h-1.8v.7zm-2.2 5.9c-1.3 0-2.4-1.1-2.4-2.6s1.1-2.6 2.4-2.6c1.3 0 2.3 1.1 2.3 2.6s-1 2.6-2.3 2.6zm24.4-11.1h-4.5V30h1.9v-4.7h2.6c2.1 0 4.1-1.5 4.1-3.9s-2-3.9-4.1-3.9zm.1 6h-2.7v-4.3h2.7c1.4 0 2.2 1.2 2.2 2.1-.1 1.1-.9 2.2-2.2 2.2zm11.5-1.8c-1.4 0-2.8.6-3.3 1.9l1.7.7c.4-.7 1-.9 1.7-.9 1 0 1.9.6 2 1.6v.1c-.3-.2-1.1-.5-1.9-.5-1.8 0-3.6 1-3.6 2.8 0 1.7 1.5 2.8 3.1 2.8 1.3 0 1.9-.6 2.4-1.2h.1v1h1.8v-4.8c-.2-2.2-1.9-3.5-4-3.5zm-.2 6.9c-.6 0-1.5-.3-1.5-1.1 0-1 1.1-1.3 2-1.3.8 0 1.2.2 1.7.4-.2 1.2-1.2 2-2.2 2zm10.5-6.6l-2.1 5.4h-.1l-2.2-5.4h-2l3.3 7.6-1.9 4.2h1.9l5.1-11.8h-2zm-16.8 8h1.9V17.5h-1.9V30z"/><linearGradient id="SVGID_1_" gradientUnits="userSpaceOnUse" x1="21.8" y1="33.29" x2="5.017" y2="16.508" gradientTransform="matrix(1 0 0 -1 0 42)"><stop offset="0" stop-color="#00a0ff"/><stop offset=".007" stop-color="#00a1ff"/><stop offset=".26" stop-color="#00bfff"/><stop offset=".512" stop-color="#00d4ff"/><stop offset=".76" stop-color="#00e1ff"/><stop offset="1" stop-color="#00e6ff"/></linearGradient><path d="M10.4 7.5c-.3.3-.4.8-.4 1.4V31c0 .6.2 1.1.5 1.4l.1.1L23 20.1v-.2L10.4 7.5z" fill="url(#SVGID_1_)"/><linearGradient id="SVGID_2_" gradientUnits="userSpaceOnUse" x1="33.834" y1="21.998" x2="9.637" y2="21.998" gradientTransform="matrix(1 0 0 -1 0 42)"><stop offset="0" stop-color="#ffdf00"/><stop offset=".409" stop-color="#ffba00"/><stop offset=".775" stop-color="#ffa000"/><stop offset="1" stop-color="#ff9600"/></linearGradient><path d="M27 24.3l-4.1-4.1V19.9l4.1-4.1.1.1 4.9 2.8c1.4.8 1.4 2.1 0 2.9l-5 2.7z" fill="url(#SVGID_2_)"/><linearGradient id="SVGID_3_" gradientUnits="userSpaceOnUse" x1="24.827" y1="19.704" x2="2.069" y2="-3.054" gradientTransform="matrix(1 0 0 -1 0 42)"><stop offset="0" stop-color="#ff0839"/><stop offset="1" stop-color="#d40062"/></linearGradient><path d="M27.1 24.2L22.9 20 10.4 32.5c.5.5 1.2.5 2.1.1l14.6-8.4" fill="url(#SVGID_3_)"/><linearGradient id="SVGID_4_" gradientUnits="userSpaceOnUse" x1="7.297" y1="41.824" x2="17.46" y2="31.661" gradientTransform="matrix(1 0 0 -1 0 42)"><stop offset="0" stop-color="#00a26d"/><stop offset=".069" stop-color="#00aa6c"/><stop offset=".476" stop-color="#00d369"/><stop offset=".801" stop-color="#00eb66"/><stop offset="1" stop-color="#00f565"/></linearGradient><path d="M27.1 15.8L12.5 7.5c-.9-.5-1.6-.4-2.1.1L22.9 20l4.2-4.2z" fill="url(#SVGID_4_)"/><path d="M27 24.1l-14.5 8.2c-.8.5-1.5.4-2 0l-.1.1.1.1c.5.4 1.2.5 2 0L27 24.1z" opacity=".2"/><path class="st6" d="M10.4 32.3c-.3-.3-.4-.8-.4-1.4v.1c0 .6.2 1.1.5 1.4v-.1h-.1zM32 21.3l-5 2.8.1.1 4.9-2.8c.7-.4 1-.9 1-1.4 0 .5-.4.9-1 1.3z"/><path d="M12.5 7.6L32 18.7c.6.4 1 .8 1 1.3 0-.5-.3-1-1-1.4L12.5 7.5c-1.4-.8-2.5-.2-2.5 1.4V9c0-1.5 1.1-2.2 2.5-1.4z" opacity=".25" fill="#fff"/><g><path d="M44.8 11c.2.2.3.5.3.8 0 .2-.1.5-.2.7-.1.2-.3.4-.6.5-.2.1-.5.2-.8.2h-1.9V8.3h1.9c.3 0 .6.1.9.2.2.1.4.3.5.5 0 .1.1.3.1.5 0 .3-.1.5-.2.7-.1.2-.4.3-.6.4.2.1.5.2.6.4zm-2.4-.7h1c.3 0 .5-.1.6-.2.1-.1.2-.3.2-.5s-.1-.4-.2-.5c-.1-.1-.4-.2-.6-.2h-1v1.4zm1.7 2c.2-.1.2-.3.2-.5s-.1-.4-.2-.6c-.2-.2-.4-.2-.7-.2h-1v1.5h1.1c.2 0 .4-.1.6-.2zM46.6 8.3v4.9h-.8V8.3h.8zM48.2 8.9v1.4h1.7v.7h-1.7v1.5h1.9v.7h-2.7V8.3h2.7V9h-1.9zM54.9 13.1h-.8l-2.4-3.6v3.6h-.8V8.3h.8l2.4 3.6V8.3h.8v4.8zM58.8 8.3V9h-1.3v4.2h-.8V8.9h-1.3v-.6h3.4zM60.4 12.9c-.4-.2-.7-.5-.9-.9-.2-.4-.3-.8-.3-1.3s.1-.9.3-1.3.5-.7.9-.9c.4-.2.8-.3 1.2-.3.5 0 .9.1 1.3.3.4.2.7.5.9.9.2.4.3.8.3 1.3s-.1.9-.3 1.3c-.2.4-.5.7-.9.9-.4.2-.8.3-1.3.3-.4 0-.8-.1-1.2-.3zm2.1-.6c.3-.1.4-.4.6-.6s.2-.6.2-.9-.1-.7-.2-.9c-.1-.3-.3-.5-.6-.6-.2-.3-.5-.4-.8-.4s-.7.1-.9.2c-.3.1-.4.4-.6.6-.1.3-.2.6-.2 1s.1.7.2.9c.1.3.3.5.6.6.3.1.5.2.9.2s.6 0 .8-.1zm-.8-4.9l-1 .6v-.6l1-.6 1 .6V8l-1-.6zM67.9 8.3V9h-1.3v4.2h-.8V8.9h-1.3v-.6h3.4zM73 8.6c.4.2.7.5.9.9.2.4.3.8.3 1.3s-.1.9-.3 1.3c-.2.4-.5.6-.9.8-.4.2-.8.3-1.4.3H70V8.3h1.6c.6 0 1 .1 1.4.3zm0 3.4c.3-.3.5-.7.5-1.3 0-.6-.2-1-.5-1.3s-.7-.5-1.3-.5h-.8v3.6h.8c.5 0 1-.2 1.3-.5zM75.6 8.3v4.9h-.8V8.3h.8zM77.2 13c-.3-.1-.5-.3-.6-.5s-.2-.5-.2-.7h.9c0 .2.1.4.2.5.1.1.4.2.6.2.3 0 .5-.1.6-.2.2-.1.2-.3.2-.5s0-.3-.1-.4-.2-.2-.4-.2c-.1-.1-.3-.1-.6-.2s-.6-.2-.8-.3c-.2-.1-.4-.2-.5-.4s-.2-.4-.2-.7c0-.3.1-.5.2-.7s.3-.4.6-.5c.3-.1.5-.2.9-.2.5 0 .9.1 1.2.4.3.2.5.6.5 1h-.9c0-.2-.1-.3-.3-.5s-.4-.2-.6-.2c-.2 0-.4.1-.6.2-.1.1-.2.3-.2.5 0 .1 0 .3.1.4.1.1.2.2.3.2.1.1.3.1.6.2s.6.2.8.3c.2.1.4.2.5.4.1.2.2.4.2.7 0 .2-.1.5-.2.7-.1.2-.3.4-.6.5-.3.1-.6.2-.9.2-.2 0-.5-.1-.7-.2zM83.7 10.4c-.1.2-.3.4-.6.5-.3.1-.6.2-1 .2h-.9v2h-.8V8.3h1.7c.4 0 .7.1.9.2s.5.3.6.5c.1.2.2.5.2.7.1.3 0 .5-.1.7zm-.9-.1c.1-.1.2-.3.2-.6 0-.5-.3-.8-.9-.8h-.9v1.6h.9c.4 0 .6-.1.7-.2zM85.4 12.9c-.4-.2-.7-.5-.9-.9-.2-.4-.3-.8-.3-1.3s.1-.9.3-1.3.5-.7.9-.9c.4-.2.8-.3 1.2-.3.5 0 .9.1 1.3.3.4.2.7.5.9.9.2.4.3.8.3 1.3s-.1.9-.3 1.3c-.2.4-.5.7-.9.9-.4.2-.8.3-1.3.3-.4 0-.8-.1-1.2-.3zm2.1-.6c.3-.1.4-.4.6-.6s.2-.6.2-.9-.1-.7-.2-.9c-.1-.3-.3-.5-.6-.6-.2-.3-.5-.4-.9-.4s-.6.1-.8.2c-.3.1-.4.4-.6.6-.1.3-.2.6-.2 1s.1.7.2.9c.1.3.3.5.6.6.3.1.5.2.9.2s.6 0 .8-.1zM93.7 13.1h-.8l-2.4-3.6v3.6h-.8V8.3h.8l2.4 3.6V8.3h.8v4.8zM95.3 8.3v4.9h-.8V8.3h.8zM99.4 11c.2.2.3.5.3.8 0 .2-.1.5-.2.7-.1.2-.3.4-.6.5-.2.1-.5.2-.8.2h-1.9V8.3H98c.3 0 .6.1.9.2.2.1.4.3.5.5.1.2.2.4.2.6 0 .3-.1.5-.2.7-.1.2-.4.3-.6.4.2 0 .5.1.6.3zm-2.4-.7h1c.3 0 .5-.1.6-.2.1-.1.2-.3.2-.5s-.1-.4-.2-.5c-.2-.1-.4-.2-.6-.2h-1v1.4zm1.7 2c.2-.1.2-.3.2-.5s-.1-.4-.2-.6c-.2-.2-.4-.2-.7-.2h-1v1.5h1.1c.2 0 .4-.1.6-.2zM101.2 12.5h1.6v.6h-2.4V8.3h.8v4.2zM104.1 8.9v1.4h1.7v.7h-1.7v1.5h1.9v.7h-2.7V8.3h2.7V9h-1.9zM109.1 13c-.3-.1-.5-.3-.6-.5s-.2-.5-.2-.7h.9c0 .2.1.4.2.5.1.1.4.2.6.2.3 0 .5-.1.6-.2.2-.1.2-.3.2-.5s0-.3-.1-.4-.2-.2-.4-.2c-.1-.1-.3-.1-.6-.2s-.6-.2-.8-.3c-.2-.1-.4-.2-.5-.4s-.2-.4-.2-.7c0-.3.1-.5.2-.7s.3-.4.6-.5c.3-.1.5-.2.9-.2.5 0 .9.1 1.2.4.3.2.5.6.5 1h-.9c0-.2-.1-.3-.3-.5s-.4-.2-.6-.2c-.2 0-.4.1-.6.2-.1.1-.2.3-.2.5 0 .1 0 .3.1.4.1.1.2.2.3.2.1.1.3.1.6.2s.6.2.8.3c.2.1.4.2.5.4.1.2.2.4.2.7 0 .2-.1.5-.2.7-.1.2-.3.4-.6.5-.3.1-.6.2-.9.2-.2 0-.5-.1-.7-.2zM113.2 8.3v3.1c0 .4.1.6.3.8.2.2.5.3.8.3.3 0 .6-.1.8-.3.2-.2.3-.5.3-.8V8.3h.8v3.1c0 .4-.1.7-.3 1-.2.3-.4.5-.7.6-.3.1-.6.2-1 .2s-.7-.1-1-.2-.5-.3-.7-.6c-.2-.3-.3-.6-.3-1V8.3h1zM119.5 13.1l-1.1-1.9h-.6v1.9h-.8V8.3h1.7c.4 0 .7.1.9.2s.5.3.6.5c.1.2.2.5.2.7 0 .3-.1.6-.3.9-.2.3-.5.4-.9.5l1.2 2h-.9zm-1.7-2.6h.9c.3 0 .5-.1.7-.2.2-.1.2-.4.2-.6s-.1-.4-.2-.6c-.1-.1-.4-.2-.7-.2h-.9v1.6z"/></g></svg>