<svg xmlns="http://www.w3.org/2000/svg" viewBox="0 0 894.53 306.29"><defs><style>.cls-1{fill:#fff;}</style></defs><g id="Calque_2" data-name="Calque 2"><g id="Calque_1-2" data-name="Calque 1"><path class="cls-1" d="M11.05,232.08a2,2,0,0,1,1.58-.52c5.79,0,21.58,5.26,21.58,7.89-.53,5.79-.53,10.53-.53,16.31a113,113,0,0,0,1,12.64l17.37,9.47c5.79-12.11,14.74-28.42,19.47-36.31l30.53-56.32c14.2-26.83,23.15-47.89,42.62-77.88L190,34.21c-18.94,0-48.94,6.84-70,15.26a110.52,110.52,0,0,0-1,12.63c0,8.42-1.06,14.73-1.06,24.73,0,4.74,1.06,11.58,1.06,16.32,0,5.79,1.57,8.94,1.57,11.58s-15.78,7.89-21.57,7.89a1.93,1.93,0,0,1-1.58-.53c-5.79-8.94-12.1-22.63-12.1-42.1,0-14.21,2.63-31,12.63-51.57l2.1-1.58C111,16.84,157.88,1.58,209.45,0c4.21,0,15.27.53,21.58.53,6.84,0,23.68,1.05,27.37,7.36.52,1.06.52,2.63.52,5.27,0,6.31,1.06,12.63,1.06,18.94,0,3.16,0,5.79-.53,7.37C251.55,90,246.82,136.3,243.13,181c-1.57,18.41-9.47,42.62-9.47,62.09,0,7.9.53,13.16,2.63,18.95,3.69,7.89,6.32,8.42,10,10.52a13.16,13.16,0,0,0,7.37,2.11h10.53c1.57,3.68,3.15,12.63,3.15,16.31a16.72,16.72,0,0,1-4.21,10.53c-3.68,1.58-16.84,1.05-18.42,1.05H233.66a23,23,0,0,1-12.1-3.16c-10-7.89-13.16-14.2-19.47-27.36-1.58-2.11-1.58-11.58-1.58-15.79,0-12.1,2.1-32.1,2.1-40,0-1.06,0-2.11-.52-2.64-13.69,0-42.11,3.69-54.21,3.69-1.58,0-6.31.52-10.52.52a62.34,62.34,0,0,1-12.11-1.57c-12.1,20.52-24.73,47.36-36.84,66.83-7.89,17.37-20.52,23.16-33.15,23.16-20,0-41-13.16-43.16-15.27-.52,0-1-.52-2.1-1.57C4.21,278.92,0,267.87,0,257.87c0-3.68.53-6.32,2.1-9Zm133.67-46.84c10.53-1.57,48.42-1.57,58.42-4.2,1.58-3.69,1.58-6.32,2.1-8.95l1.58-5.26c11.58-44.21,5.79-51.05,14.21-112.62,1.58-6.32,1.05-13.69,2.63-21.58Z"/><path class="cls-1" d="M405.7,22.1c0,4.21-.53,8.42-.53,14.21a70.1,70.1,0,0,1-.53,10.53C399.91,91.57,381,134.2,351.49,174.19c-6.84,9.48-27.89,34.21-40,38.42a223.85,223.85,0,0,0-3.15,34.21c0,16.84,3.15,29.47,15.26,31.57,51.57-5.79,78.94-61,102.62-90.51,12.63,1.58,11-2.11,20.52,6.31-8.42,43.68-70,111-113.14,111A41.13,41.13,0,0,1,322,303.66h-2.11c-11.05,0-22.1-3.69-34.2-13.69-8.95-12.1-14.21-27.36-14.21-44.73,0-2.63.52-5.26.52-7.89,2.64-37.9,15.27-80.52,27.37-116.84C312,82.1,329.39,28.42,354.65,9c7.89-4.21,17.89-6.32,26.84-6.32,7.89,0,14.73,1.58,20,4.74C405.17,12.1,405.7,16.31,405.7,22.1ZM339.39,140c16.84-33.68,33.68-85.26,33.68-106.84a1.14,1.14,0,0,0-1.06-1C345.7,32.1,326.76,151,313.6,171,319.39,166.83,335.18,146.83,339.39,140Z"/><path class="cls-1" d="M450.58,143.67c12.63,0,16.84,5.26,16.84,15.26,0,18.42-13.68,47.37-17.89,72.1a114.13,114.13,0,0,0-2.63,21.58v20.52c1.58,1.58,8.94,2.63,11.05,2.63,16.31,0,50-23.68,51.57-38.94a78.42,78.42,0,0,1,10.53-1c6.84,0,10.52,1,12.1,3.15,1.58,3.69,2.63,5.27,3.16,11.06-16.84,29.47-54.21,51.57-92.1,51.57-27.89,0-30.52-33.15-30.52-52.63,0-4.21,1.58-10,2.11-14.73,4.21-32.63,18.41-70.52,18.41-84.73Zm4.74-15.79c-11.05,0-17.9-6.31-24.21-15.26,1.58-5.79,3.68-10.52,5.79-16.31,5.79-3.69,6.84-4.21,13.16-4.21,12.1,0,23.15,4.73,27.89,13.68C476.37,122.09,467.42,127.88,455.32,127.88Z"/><path class="cls-1" d="M613.77,139.46c12.11,0,16.84,4.21,24.74,16.31,4.21,6.85,4.73,14.21,4.73,23.16,0,30-10,66.84-10,92.1v3.15c5.27-2.63,54.21-31.57,61.58-37.36a78.44,78.44,0,0,1,10.52-1c6.84,0,10.53,1,12.11,3.15,1.58,3.69,2.63,5.27,3.15,11.06-19.47,11-57.88,51.57-92.62,51.57a31.86,31.86,0,0,1-12.63-2.11c-14.73-11.05-19.47-26.31-19.47-43.15,0-28.42,13.16-61.57,13.16-82.62-13.16,0-48.42,11.05-52.63,21.57-12.63,29.47-11,65.79-23.68,102.63A31.8,31.8,0,0,1,520.1,301c-10,0-12.11-5.26-20-12.1L498,286.81c15.27-38.94,13.16-82.09,23.16-125.77,5.79-16.32,15.26-17.9,16.84-17.9,3.68,0,7.89,0,11.58,1.58a23.9,23.9,0,0,1,7.89,18.42C570.62,151,594.3,139.46,613.77,139.46Z"/><path class="cls-1" d="M757.7,235.24c-8.94,0-21.57-2.63-29.47-5.26-1.58,2.63-2.1,5.79-2.1,9.47s.52,6.84.52,10.53c0,18.42,11.58,25.78,31.05,25.78h2.63a57,57,0,0,0,25.79-7.36l3.69-2.11c16.31-9,31-17.89,47.89-32.63,10-8.42,31-38.94,43.68-44.73a42.94,42.94,0,0,1,4.21-1.05c4.21,0,5.26,3.15,7.89,7.89,0,1.58,1,1,1,2.63,0,14.21-22.1,41.58-30.52,50-35.26,35.26-64.21,56.31-102.62,56.31-33.68,0-60-10-70.52-34.74a67,67,0,0,1-5.27-26.31c0-23.16,11.06-44.73,21-56.84,4.74-5.78,12.64-16.84,18.42-22.63,10-10.52,34.74-24.2,62.1-24.2a70.74,70.74,0,0,1,10.53,1c16.84,3.68,33.68,18.42,33.68,33.68C831.38,215.24,797.17,235.24,757.7,235.24Zm34.21-51.05c0-7.89-4.74-16.84-15.26-18.94-25.26,10.52-35.26,22.1-46.31,41.57,10.52-1.58,21-1,31-1.58,16.31-1.58,27.89-3.68,30.52-18.94Z"/></g></g></svg>